<svg id="Layer_1" data-name="Layer 1" xmlns="http://www.w3.org/2000/svg" xmlns:xlink="http://www.w3.org/1999/xlink" viewBox="0 0 1024 1024"><defs><style>.cls-1,.cls-10,.cls-18,.cls-2,.cls-3,.cls-35{fill:none;}.cls-2{stroke:#d7d7d7;}.cls-10,.cls-18,.cls-2,.cls-3,.cls-36,.cls-37{stroke-linecap:round;}.cls-10,.cls-18,.cls-2,.cls-3,.cls-35,.cls-36,.cls-37{stroke-miterlimit:10;}.cls-2,.cls-3{stroke-width:2.32px;}.cls-3{stroke:#d6d6d6;}.cls-4{fill:#e39c4f;}.cls-5{fill:#59b7f7;}.cls-6{fill:#b3bbc4;}.cls-7{fill:#cad1d9;}.cls-8{fill:#a4a5a9;opacity:0.51;isolation:isolate;}.cls-9{fill:#bfc5cb;}.cls-10{stroke:#d9e8e8;stroke-dasharray:24.34 24.34;}.cls-10,.cls-35,.cls-36,.cls-37{stroke-width:4.11px;}.cls-11,.cls-36,.cls-37{fill:#fff;}.cls-12{fill:#1d3f5e;opacity:0.2;}.cls-13{fill:#edf0f4;}.cls-14{fill:#eb544a;}.cls-15{fill:#00a19a;}.cls-16{fill:#a1b0b5;}.cls-17{fill:#909da3;}.cls-18,.cls-35{stroke:#fff;}.cls-18{stroke-width:7.1px;}.cls-19{fill:#ff9f40;}.cls-20{clip-path:url(#clip-path);}.cls-21{fill:#634e42;}.cls-22{fill:#393a3a;}.cls-23{fill:#e94958;}.cls-24{fill:#e0b27f;}.cls-25{fill:#3c3c3b;}.cls-26{fill:#e7bf88;}.cls-27{fill:#cf374d;}.cls-28{clip-path:url(#clip-path-2);}.cls-29{clip-path:url(#clip-path-3);}.cls-30{clip-path:url(#clip-path-4);}.cls-31{fill:#585856;}.cls-32{fill:#e9e9e9;}.cls-33{fill:#ef872d;}.cls-34{fill:#eb7620;}.cls-36{stroke:#e94e1b;}.cls-37{stroke:#008d36;}</style><clipPath id="clip-path"><circle class="cls-1" cx="815.29" cy="278.25" r="89.24"/></clipPath><clipPath id="clip-path-2"><circle class="cls-1" cx="801.49" cy="493.86" r="72.24"/></clipPath><clipPath id="clip-path-3"><circle class="cls-1" cx="801.49" cy="498.1" r="69.35"/></clipPath><clipPath id="clip-path-4"><rect class="cls-1" x="739.87" y="423.94" width="123.25" height="147.43"/></clipPath></defs><path class="cls-2" d="M135.65,818.46c-2.2-3.11-4.5-6.31-6.61-9.51"/><path class="cls-3" d="M123.36,815.11q-3.36-4.71-6.64-9.5"/><path class="cls-3" d="M923.57,783.6c-2,3.3-4,6.59-6.11,9.84"/><path class="cls-1" d="M490.87,868.36l1.66,1.59"/><path class="cls-4" d="M491.6,859.19v.31h.18A1.92,1.92,0,0,0,491.6,859.19Z"/><rect class="cls-5" x="15.19" y="213.46" width="1003.45" height="570.14" rx="31.36"/><polygon class="cls-6" points="692.51 963.79 327.66 963.79 386.71 825.58 633.45 825.58 692.51 963.79"/><path class="cls-7" d="M265.08,946.08h490a35.43,35.43,0,0,1,35.43,35.42H229.66A35.42,35.42,0,0,1,265.08,946.08Z"/><polygon class="cls-8" points="654.16 874.02 366.23 874.02 382.59 835.02 637.8 835.02 654.16 874.02"/><path class="cls-9" d="M980.26,208.33H45.92c-22.29-.05-40.46,17.31-40.46,38.5V740.12h-.1v71.62a35.77,35.77,0,0,0,35.75,35.75H982.88a35.78,35.78,0,0,0,35.76-35.75V740.12h0V246.83C1018.67,226.23,1001.62,209.35,980.26,208.33ZM28.14,224.07a30.33,30.33,0,0,1,17.78-5.66h932.3a14.8,14.8,0,0,1,2,.08c15.49,1,27.8,13.32,27.8,28.34V730H16.15V246.83A28,28,0,0,1,28,224.13Z"/><circle class="cls-10" cx="569.15" cy="384.23" r="263.37"/><circle class="cls-11" cx="510.07" cy="793.44" r="32.14"/><rect class="cls-12" x="151" y="59.47" width="497.88" height="642.83"/><rect class="cls-13" x="136.94" y="44.95" width="497.88" height="642.83"/><rect class="cls-14" x="136.94" y="42.5" width="497.88" height="52.87"/><circle class="cls-11" cx="595.55" cy="68.93" r="6.48"/><circle class="cls-11" cx="575.63" cy="68.93" r="6.48"/><circle class="cls-11" cx="555.71" cy="68.93" r="6.48"/><path class="cls-15" d="M244.48,155.84a51.92,51.92,0,1,0,51.91,51.93h0A51.92,51.92,0,0,0,244.48,155.84Z"/><path class="cls-16" d="M579.18,211.31H329.12a3.55,3.55,0,1,1,0-7.1H579.18a3.55,3.55,0,1,1,0,7.1Z"/><path class="cls-16" d="M579.18,239.3H329.12a3.55,3.55,0,0,1,0-7.1H579.18a3.55,3.55,0,1,1,0,7.1Z"/><path class="cls-17" d="M454.15,184.51h-125a4.74,4.74,0,0,1,0-9.47h125a4.74,4.74,0,0,1,0,9.47Z"/><path class="cls-15" d="M244.48,291.48a51.92,51.92,0,1,0,51.91,51.93v0A51.92,51.92,0,0,0,244.48,291.48Z"/><path class="cls-16" d="M579.18,346.94H329.12a3.55,3.55,0,0,1,0-7.1H579.18a3.55,3.55,0,1,1,0,7.1Z"/><path class="cls-16" d="M579.18,374.92H329.12a3.55,3.55,0,0,1,0-7.1H579.18a3.55,3.55,0,1,1,0,7.1Z"/><path class="cls-17" d="M454.15,320.14h-125a4.74,4.74,0,0,1,0-9.47h125a4.74,4.74,0,0,1,0,9.47Z"/><path class="cls-18" d="M215.93,345l19.6,19.61L273,327.09"/><path class="cls-18" d="M215.93,206.9l19.6,19.6L273,189"/><rect class="cls-19" x="193.91" y="448.47" width="182.32" height="100.66" rx="14.13"/><rect class="cls-19" x="407.04" y="448.47" width="182.32" height="100.66" rx="14.13"/><rect class="cls-16" x="194.86" y="591.64" width="180.42" height="7.1" rx="3.55"/><path class="cls-16" d="M347.58,580.83h-125a4.74,4.74,0,0,1,0-9.48h125a4.74,4.74,0,1,1,0,9.48Z"/><rect class="cls-16" x="408.94" y="591.64" width="180.42" height="7.1" rx="3.55"/><path class="cls-16" d="M561.67,580.83h-125a4.74,4.74,0,0,1,0-9.48h125a4.74,4.74,0,0,1,0,9.48Z"/><circle class="cls-14" cx="801.49" cy="493.86" r="72.24"/><circle class="cls-15" cx="815.29" cy="278.25" r="89.24"/><g class="cls-20"><path class="cls-21" d="M786.51,226.89a45.77,45.77,0,0,0-2.17,4.59c-1.51,3.71-3,7.48-2.81,11.84.22,4.06,1.71,3.76,1.85,7.58.2,5.44-2.85,6.17-2.58,10.73.32,5.26,4.51,6.58,3.75,11-.44,2.53-1.84,2.39-3,5.54a14.53,14.53,0,0,0,1.18,12.61c2.42,3.64,6.59,4.59,10.47,5.46,11.08,2.48,14.57-2,26.87-.63,5.64.61,5.45,1.61,14,2.7,8.07,1,14.77,1.88,16.35-.92,2-3.52-6.29-8.84-4.28-15.57,1-3.44,4-4.61,3.39-7.38s-4-3-4.41-5.77,3.06-3.82,3.21-7.2c.18-3.74-4-4.35-5.19-9.13-1-4.05,1.67-5.22,1.7-10.9a21.88,21.88,0,0,0-3.1-10.79,26.93,26.93,0,0,0-11.3-11"/><path class="cls-22" d="M799.83,277.43c.32-.09,1.16-.33,2.23-.59,3.46-.85,14.08-3.33,25.67-.41,1,.25,1.78.49,2.07.58v3.93l-29.91.25C799.87,279.94,799.84,278.69,799.83,277.43Z"/><path class="cls-23" d="M868.27,316.76l1.31,55.88-107.16,2.53L761,315.27c-.19-8.2,3.41-15.86,9.49-20.24,1.24-.89,2.2-1.81,5.78-4.11,4.6-3,11.15-7.08,19.43-11.76l7,2.81,21.3,2.37,9.41-6.09c3.38,1.74,8.31,4.36,14.14,7.83,2.48,1.47,5.22,3.19,6.21,3.81C862.44,295.33,868,305.52,868.27,316.76Z"/><path class="cls-24" d="M827.73,262.23l-26.87.63c.32.72,4.19,9.5.32,13.54a5.72,5.72,0,0,1-1.35,1q.25.92.6,1.8a19.68,19.68,0,0,0,1,2,15.16,15.16,0,0,0,3.16,2.59A17.07,17.07,0,0,0,814.62,286a25.47,25.47,0,0,0,14.27-5.45l.3-1a21.55,21.55,0,0,0,.57-2.53h0a8.21,8.21,0,0,1-1.71-1.62C824.31,270.64,827.32,263.21,827.73,262.23Z"/><path class="cls-25" d="M824.49,323.77c-.77,4.86-2.53,15.54-3.8,23.07q-1.76,10.49-3.55,20.85-4.95-20.82-9.36-43.43-4.69-24.22-7.95-46.83c.23.39,5.19,8.51,14.81,8.55a17.27,17.27,0,0,0,15.18-9C828.16,298.27,826.09,313.64,824.49,323.77Z"/><ellipse class="cls-26" cx="789.09" cy="246.48" rx="2.68" ry="7.52" transform="translate(-33.93 168.73) rotate(-11.95)"/><ellipse class="cls-26" cx="837.08" cy="245.36" rx="7.52" ry="2.68" transform="translate(460.22 1032.05) rotate(-80.74)"/><path class="cls-26" d="M814.81,272.49c-5.2.28-9.14-3.08-13.41-6.83a50.75,50.75,0,0,1-13.56-19.56l-.25-10.63a25.16,25.16,0,1,1,50.3-1.43,2.09,2.09,0,0,1,0,.25l.25,10.62a48.08,48.08,0,0,1-10.59,19.14C823.78,268.21,820.16,272.2,814.81,272.49Z"/><path class="cls-21" d="M790.78,247.58a38.76,38.76,0,0,1-4.3-12.89c-.53-3.72-1.11-7.78.66-12.26a25.17,25.17,0,0,1,3.38-5.75,17.71,17.71,0,0,1,3.92-4.12,17.24,17.24,0,0,1,8.18-2.94c1.81-.21,2,0,4.39-.24,2.91-.34,3-.73,5.4-1.06a19.69,19.69,0,0,1,9.45.77,13.15,13.15,0,0,1,2.68,1.2c1.21.78,2.26,1.4,6.52,5.28a35.86,35.86,0,0,1,3.42,3.31,30,30,0,0,1,2.48,3.47c.85,1.33,2.95,4.65,3.53,5.85,2.5,5.16-2.11,14-3.41,16.38.08-6.4-1.33-8.54-2.68-9.27a14.52,14.52,0,0,1-4.36-3.07c-.31-.38-.6-.8-.6-.8a11.67,11.67,0,0,1-1.31-2.56c-.36-1-1.48-2.74-4.59-6.31-6.91.59-11,2.89-13.49,4.86-3,2.41-4.26,4.89-8.23,6.25-3.56,1.22-5.08.1-7.19,1.32S790.57,239.16,790.78,247.58Z"/><path class="cls-27" d="M792,282c-12,12.77-.9,46.93,25.13,85.7q-8.67-45.13-17.31-90.26A17,17,0,0,0,792,282Z"/><path class="cls-27" d="M837.72,281.18c12.63,12.16,3.34,46.71-20.58,86.51L829.7,277A16.91,16.91,0,0,1,837.72,281.18Z"/><path class="cls-25" d="M787.53,239.13a25.24,25.24,0,0,1,5.5-16.78c6.77-8.22,16.49-8.74,18.58-8.85,2.6-.15,11.42-.48,18.75,6.22a25.31,25.31,0,0,1,7.94,18.22,25.87,25.87,0,0,0-50.77,1.19Z"/></g><g class="cls-28"><g class="cls-29"><g class="cls-30"><path class="cls-22" d="M788.83,495.82c.27-.06,1-.25,1.87-.44a44.64,44.64,0,0,1,21.4.16c.83.23,1.48.44,1.71.52l-.08,3.28L788.8,499Z"/><path class="cls-31" d="M852.15,532.28v46.59H750.83v-50a19.48,19.48,0,0,1,9.42-16.65l5.53-3.33q11.73-6.94,23.05-13.11c0,1.46,0,2.91-.05,4.37l24.64,1.13.42-5.26q9.4,4.65,19.4,10.25,2.94,1.65,5.79,3.33A26.19,26.19,0,0,1,852.15,532.28Z"/><path class="cls-24" d="M812.38,483.7H790c.25.59,3.33,8,0,11.29a4.43,4.43,0,0,1-1.15.83l-.42,2.75a20,20,0,0,0,25.92-.19c-.19-.77-.37-1.54-.55-2.31h0a6.54,6.54,0,0,1-1.39-1.39C809.37,490.64,812,484.51,812.38,483.7Z"/><path class="cls-32" d="M814.79,500q-3,17.31-6.32,34.95-3.4,18.42-7,36.46Q794.55,535,787.56,498.6a1.68,1.68,0,0,0,.8-.34,2.25,2.25,0,0,0,.47-2.44,22.66,22.66,0,0,0,25,.24Z"/><path class="cls-33" d="M810.24,546l-8.69,25.38q-4.39-12.69-8.8-25.39,1.43-8.58,2.88-17.19t2.92-17.18l2.12,2.3a1,1,0,0,0,1.43.26,1,1,0,0,0,.42-.61l1.86-2.11q1.5,8.7,3,17.45Q808.81,537.46,810.24,546Z"/><path class="cls-33" d="M792.75,546a7.34,7.34,0,0,0-.16.84"/><path class="cls-33" d="M799.24,507.49c-.23,1.38-.46,2.73-.66,4.11"/><path class="cls-33" d="M810.39,546.82a5.91,5.91,0,0,0-.15-.84"/><path class="cls-33" d="M804.47,511.81c-.23-1.43-.5-2.89-.73-4.32"/><path class="cls-25" d="M801.49,571.36l-22.42-44.11,5.11-8.31L779,517q3.5-7.73,7.17-15.56l2.66-5.6q1.74,10.2,3.46,20.38Q797,543.85,801.49,571.36Z"/><ellipse class="cls-26" cx="780.46" cy="469.85" rx="2.24" ry="6.27" transform="translate(-73.11 151.58) rotate(-10.6)"/><ellipse class="cls-26" cx="820.49" cy="469.82" rx="6.27" ry="2.24" transform="translate(207.76 1189.88) rotate(-79.4)"/><path class="cls-34" d="M800.59,514.08l-5.4-6.45a1.12,1.12,0,0,1,0-1.42l5.4-6.44a1.09,1.09,0,0,1,1.55-.13l.13.13,5.5,6.44a1.08,1.08,0,0,1,0,1.43l-5.5,6.44a1.11,1.11,0,0,1-1.56.12Z"/><path class="cls-25" d="M801.49,571.36q11-22.35,22.08-44.72l-5.12-8.36,5.18-2L813.81,496Q807.66,533.71,801.49,571.36Z"/><path class="cls-26" d="M801.41,492c-4.34.13-7.56-2.75-11-6a42.26,42.26,0,0,1-10.92-16.55v-8.84a21,21,0,0,1,42,0v8.84a40.33,40.33,0,0,1-9.2,15.74C809,488.61,805.86,491.86,801.41,492Z"/><path class="cls-21" d="M781.88,470.78A24.75,24.75,0,0,1,778.55,460c-.15-2.43-.56-9.14,2.52-10.94a16.24,16.24,0,0,0,4-2.6c1.67-1.6,1.52-2.37,2.77-3.73,2.72-2.95,7-3.3,8.36-3.42.71-.07,2.16,0,5.07.05a36.27,36.27,0,0,0,4.21.08,8.53,8.53,0,0,1,3.09-.08,6.11,6.11,0,0,1,2.21,1.06c2.9,1.94,4.44,2.86,5.33,4.52.8,1.5.7,2.45,1.92,4.33a13.7,13.7,0,0,0,2.5,2.82c1.6,1.46,2.58,5.59,0,17.14.19-5.33-1-7.14-2.06-7.78a12,12,0,0,1-3.58-2.66c-.24-.32-.47-.67-.47-.67a9.59,9.59,0,0,1-1-2.16c-.28-.8-1.17-2.31-3.7-5.33-5.77.35-9.24,2.18-11.32,3.78-2.56,1.95-3.64,4-7,5.05-3,.95-4.23,0-6,1S781.88,463.76,781.88,470.78Z"/></g></g></g><circle class="cls-35" cx="815.29" cy="278.25" r="89.24"/><circle class="cls-35" cx="801.49" cy="493.86" r="72.24"/><circle class="cls-11" cx="857.29" cy="535.79" r="24.58"/><path class="cls-36" d="M848.25,526.75l18.08,18.08"/><path class="cls-36" d="M848.25,544.83l18.08-18.08"/><circle class="cls-11" cx="882.85" cy="333.53" r="27.75"/><path class="cls-37" d="M868.68,336.33l8.17,8.69L897,324.85"/></svg>